<svg width="173" height="173" viewBox="0 0 173 173" fill="none" xmlns="http://www.w3.org/2000/svg">
<rect width="173" height="173" fill="white"/>
<line x1="87.4336" y1="29.1767" x2="65.0913" y2="68.0956" stroke="#8FA7E5"/>
<line x1="65.0943" y1="68.0895" x2="43.4727" y2="107.008" stroke="#8FA7E5"/>
<line x1="42.7525" y1="107.008" x2="21.1309" y2="145.927" stroke="#8FA7E5"/>
<line x1="108.185" y1="68.0895" x2="86.5634" y2="29.1706" stroke="#8FA7E5"/>
<line x1="86.5664" y1="107.015" x2="64.224" y2="68.0956" stroke="#8FA7E5"/>
<line x1="64.2236" y1="145.934" x2="41.8813" y2="107.015" stroke="#8FA7E5"/>
<line x1="130.711" y1="107.197" x2="64.4045" y2="68.2779" stroke="#8FA7E5"/>
<line x1="108.369" y1="146.116" x2="42.0627" y2="107.197" stroke="#8FA7E5"/>
<line x1="152.419" y1="146.156" x2="42.869" y2="107.237" stroke="#8FA7E5"/>
<circle cx="86.6398" cy="28.5676" r="7.06757" fill="#8FA7E5" stroke="#1E3369"/>
<circle cx="64.2971" cy="67.4865" r="7.06757" fill="#8FA7E5" stroke="#1E3369"/>
<circle cx="108.261" cy="67.4865" r="7.06757" fill="#8FA7E5" stroke="#1E3369"/>
<circle cx="42.676" cy="106.405" r="7.06757" fill="#34519C" stroke="#1E3369"/>
<circle cx="20.3332" cy="145.324" r="7.06757" fill="#8FA7E5" stroke="#1E3369"/>
<circle cx="86.6398" cy="106.405" r="7.06757" fill="#34519C" stroke="#1E3369"/>
<circle cx="64.2971" cy="145.324" r="7.06757" fill="#8FA7E5" stroke="#1E3369"/>
<circle cx="108.261" cy="145.324" r="7.06757" fill="#8FA7E5" stroke="#1E3369"/>
<circle cx="130.604" cy="106.405" r="7.06757" fill="#34519C" stroke="#1E3369"/>
<circle cx="152.226" cy="145.324" r="7.06757" fill="#8FA7E5" stroke="#1E3369"/>
<rect x="6" y="92.793" width="162" height="27.2252" rx="13" stroke="#1E3369" stroke-width="2"/>
</svg>
