<svg width="173" height="173" viewBox="0 0 173 173" fill="none" xmlns="http://www.w3.org/2000/svg">
<rect width="173" height="173" fill="white"/>
<line x1="87.4336" y1="26.1767" x2="65.0913" y2="65.0956" stroke="#8FA7E5"/>
<line x1="65.0943" y1="65.0895" x2="43.4727" y2="104.008" stroke="#8FA7E5"/>
<line x1="42.7525" y1="104.008" x2="21.1309" y2="142.927" stroke="#8FA7E5"/>
<line x1="108.185" y1="65.0895" x2="86.5634" y2="26.1706" stroke="#8FA7E5"/>
<line x1="86.5664" y1="104.015" x2="64.224" y2="65.0956" stroke="#8FA7E5"/>
<line x1="64.2236" y1="142.934" x2="41.8813" y2="104.015" stroke="#8FA7E5"/>
<line x1="130.711" y1="104.197" x2="64.4045" y2="65.2779" stroke="#8FA7E5"/>
<line x1="108.369" y1="143.116" x2="42.0627" y2="104.197" stroke="#8FA7E5"/>
<line x1="152.419" y1="143.156" x2="42.869" y2="104.237" stroke="#8FA7E5"/>
<circle cx="86.6398" cy="25.5676" r="7.06757" fill="#8FA7E5" stroke="#1E3369"/>
<circle cx="64.2971" cy="64.4865" r="7.06757" fill="#8FA7E5" stroke="#1E3369"/>
<circle cx="108.261" cy="64.4865" r="7.06757" fill="#8FA7E5" stroke="#1E3369"/>
<circle cx="42.676" cy="103.405" r="7.06757" fill="#8FA7E5" stroke="#1E3369"/>
<circle cx="20.3332" cy="142.324" r="7.06757" fill="#34519C" stroke="#1E3369"/>
<circle cx="86.6398" cy="103.405" r="7.06757" fill="#8FA7E5" stroke="#1E3369"/>
<circle cx="64.2971" cy="142.324" r="7.06757" fill="#34519C" stroke="#1E3369"/>
<circle cx="108.261" cy="142.324" r="7.06757" fill="#34519C" stroke="#1E3369"/>
<circle cx="130.604" cy="103.405" r="7.06757" fill="#8FA7E5" stroke="#1E3369"/>
<circle cx="152.226" cy="142.324" r="7.06757" fill="#34519C" stroke="#1E3369"/>
<rect x="6" y="128.712" width="162" height="27.2252" rx="13" stroke="#1E3369" stroke-width="2"/>
</svg>
