<svg width="173" height="173" viewBox="0 0 173 173" fill="none" xmlns="http://www.w3.org/2000/svg">
<rect width="173" height="173" fill="white"/>
<line x1="87.4336" y1="32.2216" x2="65.0913" y2="71.1405" stroke="#8FA7E5"/>
<line x1="65.0943" y1="71.1344" x2="43.4727" y2="110.053" stroke="#8FA7E5"/>
<line x1="42.7525" y1="110.053" x2="21.1309" y2="148.972" stroke="#8FA7E5"/>
<line x1="108.184" y1="71.1344" x2="86.5624" y2="32.2155" stroke="#8FA7E5"/>
<line x1="86.5664" y1="110.059" x2="64.224" y2="71.1406" stroke="#8FA7E5"/>
<line x1="64.2236" y1="148.978" x2="41.8813" y2="110.06" stroke="#8FA7E5"/>
<line x1="130.712" y1="110.242" x2="64.4054" y2="71.3228" stroke="#8FA7E5"/>
<line x1="108.368" y1="149.161" x2="42.0617" y2="110.242" stroke="#8FA7E5"/>
<line x1="152.419" y1="149.201" x2="42.869" y2="110.282" stroke="#8FA7E5"/>
<circle cx="86.6398" cy="31.6115" r="7.06757" fill="#34519C" stroke="#1E3369"/>
<circle cx="64.2971" cy="70.5314" r="7.06757" fill="#8FA7E5" stroke="#1E3369"/>
<circle cx="108.261" cy="70.5314" r="7.06757" fill="#8FA7E5" stroke="#1E3369"/>
<circle cx="42.676" cy="109.449" r="7.06757" fill="#8FA7E5" stroke="#1E3369"/>
<circle cx="20.3322" cy="148.369" r="7.06757" fill="#8FA7E5" stroke="#1E3369"/>
<circle cx="86.6398" cy="109.449" r="7.06757" fill="#8FA7E5" stroke="#1E3369"/>
<circle cx="64.2971" cy="148.369" r="7.06757" fill="#8FA7E5" stroke="#1E3369"/>
<circle cx="108.261" cy="148.369" r="7.06757" fill="#8FA7E5" stroke="#1E3369"/>
<circle cx="130.603" cy="109.449" r="7.06757" fill="#8FA7E5" stroke="#1E3369"/>
<circle cx="152.225" cy="148.369" r="7.06757" fill="#8FA7E5" stroke="#1E3369"/>
<rect x="6" y="18" width="162" height="27.2252" rx="13" stroke="#1E3369" stroke-width="2"/>
</svg>
