<svg width="250" height="173" viewBox="0 0 250 173" fill="none" xmlns="http://www.w3.org/2000/svg">
<rect width="250" height="173" fill="white"/>
<rect x="24.2915" y="36.4209" width="39.4737" height="34.9035" fill="#8FA8E5"/>
<rect x="182.186" y="66.7725" width="39.4737" height="25.2924" fill="#8FA8E5"/>
<rect x="24.2915" y="76.3828" width="39.4737" height="34.9035" fill="#6780C0"/>
<rect x="182.186" y="96.6172" width="39.4737" height="24.7866" fill="#6780C0"/>
<rect x="24.2915" y="116.345" width="39.4737" height="34.9035" fill="#34519C"/>
<rect x="182.186" y="125.956" width="39.4737" height="25.2924" fill="#34519C"/>
<rect x="76.9229" y="131.521" width="39.4737" height="19.7281" fill="#34519C"/>
<rect x="129.555" y="103.193" width="39.4737" height="48.0556" fill="#34519C"/>
<rect x="76.9229" y="68.7959" width="39.4737" height="57.1608" fill="#6780C0"/>
<rect x="129.555" y="51.5967" width="39.4737" height="46.0322" fill="#6780C0"/>
<rect x="76.9229" y="47.5498" width="39.4737" height="16.1871" fill="#8FA8E5"/>
<rect x="129.555" y="18.2109" width="39.4737" height="28.3275" fill="#8FA8E5"/>
<path d="M67.814 32.3746H19.231V156.307H225.709V62.2196H177.632L173.077 13.1523H124.494L120.446 42.9974H71.8625L67.814 32.3746Z" stroke="#1E3369" stroke-width="2"/>
<path d="M67.814 32.3746H19.231V156.307H225.709V62.2196H177.632L173.077 13.1523H124.494L120.446 42.9974H71.8625L67.814 32.3746Z" stroke="#1E3369" stroke-width="2"/>
<path d="M67.814 73.8539H19.231V156.307H225.709V94.5937H177.632L173.077 49.0674H124.494L120.446 66.2662H71.8625L67.814 73.8539Z" stroke="#1E3369" stroke-width="2"/>
<path d="M67.814 113.815H19.231V156.306H225.709V123.932H177.632L173.077 100.157H124.494L120.446 128.485H71.8625L67.814 113.815Z" stroke="#1E3369" stroke-width="2"/>
</svg>
