<svg width="250" height="173" viewBox="0 0 250 173" fill="none" xmlns="http://www.w3.org/2000/svg">
<rect width="250" height="173" fill="white"/>
<rect x="126.555" y="100.193" width="45.4737" height="54.0556" fill="#6780C0" stroke="#1E3369" stroke-width="6"/>
<rect x="126.555" y="49.1025" width="45.4737" height="52.0322" fill="#6780C0" stroke="#1E3369" stroke-width="6"/>
<rect x="126.555" y="15.7158" width="45.4737" height="34.3275" fill="#6780C0" stroke="#1E3369" stroke-width="6"/>
<rect x="22.292" y="34.4209" width="43.4737" height="38.9035" fill="#8FA7E5" stroke="white" stroke-width="4"/>
<rect x="180.187" y="63.7598" width="43.4737" height="29.2924" fill="#8FA7E5" stroke="white" stroke-width="4"/>
<rect x="22.292" y="74.3828" width="43.4737" height="38.9035" fill="#6780C0" stroke="white" stroke-width="4"/>
<rect x="180.187" y="94.1113" width="43.4737" height="28.7866" fill="#6780C0" stroke="white" stroke-width="4"/>
<rect x="22.292" y="114.345" width="43.4737" height="38.9035" fill="#34519C" stroke="white" stroke-width="4"/>
<rect x="180.187" y="123.956" width="43.4737" height="29.2924" fill="#34519C" stroke="white" stroke-width="4"/>
<rect x="74.9233" y="129.521" width="43.4737" height="23.7281" fill="#34519C" stroke="white" stroke-width="4"/>
<rect x="127.555" y="101.193" width="43.4737" height="52.0556" fill="#34519C" stroke="white" stroke-width="4"/>
<rect x="74.9233" y="67.3008" width="43.4737" height="61.1608" fill="#6780C0" stroke="white" stroke-width="4"/>
<rect x="127.555" y="50.1025" width="43.4737" height="50.0322" fill="#6780C0" stroke="white" stroke-width="4"/>
<rect x="74.9233" y="46.0557" width="43.4737" height="20.1871" fill="#8FA7E5" stroke="white" stroke-width="4"/>
<rect x="127.555" y="16.7158" width="43.4737" height="32.3275" fill="#8FA7E5" stroke="white" stroke-width="4"/>
</svg>
